<?xml version="1.0" encoding="utf-8"?>
<!-- Generator: Adobe Illustrator 25.2.1, SVG Export Plug-In . SVG Version: 6.00 Build 0)  -->
<svg version="1.1" id="Layer_1" xmlns="http://www.w3.org/2000/svg" xmlns:xlink="http://www.w3.org/1999/xlink" x="0px" y="0px"
	 viewBox="0 0 60.08 74.79" style="enable-background:new 0 0 60.08 74.79;" xml:space="preserve">
<style type="text/css">
	.st0{fill:#E08428;}
	.st1{fill:#CD5F2C;}
</style>
<g>
	<path d="M10.7,35.1c-0.13-6.05-0.18-12.1-0.43-18.15c-0.11-2.71,1.09-4.27,3.45-5.24c3.89-1.6,7.99-1.77,12.11-1.79
		c6.92-0.03,13.49,1.56,19.69,4.55c1.81,0.87,3.45,2.18,4.97,3.52c0.98,0.86,1.42,2.1,0.87,3.55C46.7,33.8,42.07,46.07,37.45,58.33
		c-0.53,1.4-1.56,2.25-2.9,2.78c-3.73,1.46-7.62,1.27-11.51,1c-3.2-0.22-6.13-1.24-8.78-3.07c-2.03-1.4-3.08-3.11-3.06-5.79
		c0.06-6.05-0.26-12.1-0.43-18.15C10.75,35.1,10.72,35.1,10.7,35.1z M48.81,24.08c-6.51,1.99-13.04,2.2-19.62,0.93
		c-6.51-1.25-12.82-3.01-17.91-7.73c0.2,0.83,0.51,1.54,0.54,2.26c0.29,8.22,0.62,16.43,0.73,24.65c0.03,2.25,0.91,3.77,2.51,5.06
		c0.78,0.63,1.61,1.25,2.52,1.65c6.08,2.7,12.24,2.66,18.42,0.39c0.47-0.17,0.91-0.76,1.11-1.25c2.98-7.38,5.91-14.78,8.85-22.17
		C46.56,26.37,46.91,24.68,48.81,24.08z M24.45,11.15c-0.89,0.05-2.22-0.02-3.5,0.22c-1.9,0.35-3.85,0.68-5.6,1.43
		c-2.62,1.11-2.89,3.15-0.83,5.09c0.89,0.83,1.92,1.57,3.01,2.12c7.12,3.54,14.73,4.75,22.61,4.4c2.43-0.11,4.85-0.43,7.03-1.63
		c2.17-1.19,2.43-3.09,0.69-4.87c-0.42-0.42-0.85-0.88-1.36-1.15c-1.77-0.94-3.52-1.96-5.39-2.67
		C35.88,12.12,30.43,11.29,24.45,11.15z M12.86,48.56c0,1.47,0.08,2.7-0.02,3.91c-0.12,1.44,0.44,2.57,1.43,3.49
		c0.73,0.68,1.54,1.33,2.41,1.8c3.43,1.84,7.17,2.22,10.98,2.01c4.74-0.27,6.99-2.24,8.07-6.92C25.47,55.64,18.43,54.38,12.86,48.56
		z"/>
	<path class="st0" d="M44.91,26.69c-0.3,1.29-0.79,2.43-2.14,2.79c-1.54,0.42-3.11,0.89-4.69,0.98c-5.58,0.31-11.13-0.07-16.55-1.53
		c-2.66-0.71-5.15-1.82-7.15-3.8c-1.34-1.33-1.75-2.59-1.49-4.59C22.89,25.86,33.59,27.49,44.91,26.69z M15.91,23.44
		c-0.93-0.71-1.78-1.37-2.6-1.99c-0.47,1.31,0.7,3.34,2.29,3.87C15.72,24.64,15.83,23.93,15.91,23.44z"/>
	<path class="st1" d="M28.65,50.78c-3.96-0.04-7.8-0.71-11.36-2.52c-0.84-0.43-1.63-1.06-2.29-1.74c-0.93-0.95-0.79-2.06,0.4-2.7
		c0.93-0.5,2-0.9,3.04-1.02c5.16-0.62,10.12,0.14,14.78,2.48c0.75,0.37,1.46,0.92,2.02,1.55c0.98,1.1,0.76,2.36-0.61,2.91
		c-1.33,0.53-2.78,0.76-4.2,1.04C29.87,50.88,29.25,50.78,28.65,50.78z M21.88,43.8c-0.8,0.12-1.76,0.23-2.71,0.44
		c-0.91,0.2-1.95,0.44-2.15,1.51c-0.22,1.17,0.79,1.72,1.6,2.19c3.2,1.85,6.67,2.22,10.26,1.65c1.02-0.16,2.2-0.49,2.32-1.76
		c0.1-1.17-0.97-1.7-1.84-2.16C27.09,44.45,24.59,44.04,21.88,43.8z"/>
	<path class="st1" d="M42.94,31.75c-1.99,4.6-3.99,9.21-6.09,14.06c0.12-1.85,0.29-3.39,0.32-4.94c0.05-2.76-1.08-4.89-3.64-6.04
		c-2-0.9-4.08-1.64-6.13-2.44c-0.27-0.11-0.55-0.17-0.82-0.35c5.42,0.73,10.82,1.48,16.15-0.53C42.8,31.59,42.87,31.67,42.94,31.75z
		"/>
	<path class="st0" d="M33.59,54.94c-0.83,1.79-1.98,3.1-3.81,3.59c-2.12,0.56-4.23,0.14-6.32-0.27c-0.21-0.04-0.45-0.14-0.59-0.29
		c-1.44-1.55-2.86-3.12-4.11-4.49C23.33,54.97,28.24,56.86,33.59,54.94z"/>
	<path class="st0" d="M28.02,22.76c0.97,0.24,1.96,0.41,2.95,0.52c3.54,0.38,12.16,1.16,12.44-0.17c0.35-1.67-11.09-3.9-13.15-4.28
		s-13.03-2.14-13.58-0.47C16.25,19.69,24.57,21.9,28.02,22.76z"/>
</g>
</svg>
